<svg xmlns="http://www.w3.org/2000/svg" width="1600" height="900" viewBox="0 0 1600 900">
  <defs>
    <linearGradient id="bg" x1="0" y1="0" x2="1" y2="1">
      <stop offset="0%" stop-color="#f8fbff"/>
      <stop offset="100%" stop-color="#edf4ff"/>
    </linearGradient>
    <linearGradient id="panel" x1="0" y1="0" x2="0" y2="1">
      <stop offset="0%" stop-color="#ffffff"/>
      <stop offset="100%" stop-color="#f7fbff"/>
    </linearGradient>
    <filter id="shadow" x="-20%" y="-20%" width="140%" height="140%">
      <feDropShadow dx="0" dy="18" stdDeviation="18" flood-color="#9ab6d8" flood-opacity="0.22"/>
    </filter>
  </defs>
  <rect width="1600" height="900" fill="url(#bg)"/>
  <g opacity="0.34" filter="url(#shadow)">
    <rect x="930" y="178" width="470" height="420" rx="30" fill="url(#panel)" stroke="#cfe0f4" stroke-width="4"/>
    <rect x="988" y="238" width="122" height="168" rx="20" fill="#dbeafe" stroke="#60a5fa" stroke-width="4"/>
    <circle cx="1049" cy="323" r="36" fill="#ffffff" stroke="#1d4ed8" stroke-width="6"/>
    <line x1="1049" y1="323" x2="1078" y2="294" stroke="#1d4ed8" stroke-width="8" stroke-linecap="round"/>
    <rect x="962" y="470" width="132" height="60" rx="18" fill="#eff6ff" stroke="#60a5fa" stroke-width="3"/>
    <text x="1028" y="509" text-anchor="middle" fill="#1d4ed8" font-size="28" font-weight="700" font-family="'Hiragino Sans','Yu Gothic',sans-serif">手動</text>
    <rect x="1230" y="470" width="132" height="60" rx="18" fill="#ecfdf3" stroke="#4ade80" stroke-width="3"/>
    <text x="1296" y="509" text-anchor="middle" fill="#15803d" font-size="28" font-weight="700" font-family="'Hiragino Sans','Yu Gothic',sans-serif">自動</text>
    <path d="M1110 500 C1150 500 1178 500 1206 500" fill="none" stroke="#94a3b8" stroke-width="10" stroke-linecap="round"/>
    <path d="M1094 500 C1132 500 1162 466 1184 430" fill="none" stroke="#3b82f6" stroke-width="10" stroke-linecap="round"/>
    <path d="M1230 430 C1210 462 1192 487 1184 500" fill="none" stroke="#22c55e" stroke-width="10" stroke-linecap="round"/>
    <circle cx="1184" cy="500" r="16" fill="#ffffff" stroke="#475569" stroke-width="5"/>
    <rect x="1122" y="554" width="124" height="54" rx="18" fill="#fff7ed" stroke="#fb923c" stroke-width="3"/>
    <text x="1184" y="590" text-anchor="middle" fill="#b45309" font-size="26" font-weight="700" font-family="'Hiragino Sans','Yu Gothic',sans-serif">出力</text>
  </g>
</svg>